# xmcd
#
# Track frame offsets: 
#        150
#        12643
#        25830
#        41333
#        53476
#        63437
#        76692
#        87738
#        96914
#        114033
#        134445
#        146245
#        166016
#        177843
#        192706
#        202487
#        219592
#
# Disc length: 3093 seconds
#
# Revision: 0
# Processed by: cddbd v1.5.2PL0 Copyright (c) Steve Scherf et al.
# Submitted via: ExactAudioCopy v0.95a4
#
DISCID=f20c1311
DTITLE=Various Artist - This Is Country Superstars 1 
DYEAR=2007
DGENRE=Country
TTITLE0=Take This Job And Shove It - Johnny Paycheck
TTITLE1=Don't Take Your Love To Town - Kenny Rogers
TTITLE2=The Girl On The Billboard - Boxcar Willie
TTITLE3=Don't Think Twice It's Alright - Waylon Jennings
TTITLE4=It's Only Make Believe - Conway Twitty
TTITLE5=Don't It Make My Brown Eyes Blue - Crystal Gayle
TTITLE6=Momma Tried - Merle Haggard
TTITLE7=Rawhide - Frankie Laine
TTITLE8=Honey I'm Home - Bonnie Bramlett
TTITLE9=Tarkio Road - Brewer and Shipley
TTITLE10=Night Life - Willie Nelson
TTITLE11=Whose Bed Have Your Boots Been Under? - Wanda Jackson
TTITLE12=Walkin' After Midnight - Patsy Cline
TTITLE13=Queen Of Hearts - Juice Newton
TTITLE14=Truck Drivin' Son Of A Gun - Dave Dudley
TTITLE15=My Home - Lonesome Spurs
TTITLE16=Wasted Days And Wasted Nights - Freddy Fender
EXTD=
EXTT0=
EXTT1=
EXTT2=
EXTT3=
EXTT4=
EXTT5=
EXTT6=
EXTT7=
EXTT8=
EXTT9=
EXTT10=
EXTT11=
EXTT12=
EXTT13=
EXTT14=
EXTT15=
EXTT16=
PLAYORDER=
